<svg id="visual" viewBox="0 0 1100 600" width="1100" height="600" xmlns="http://www.w3.org/2000/svg" xmlns:xlink="http://www.w3.org/1999/xlink" version="1.1"><rect x="0" y="0" width="1100" height="600" fill="#fff"></rect><path d="M141 0L142 16.7C143 33.3 145 66.7 153.5 100C162 133.3 177 166.7 185.3 200C193.7 233.3 195.3 266.7 180.3 300C165.3 333.3 133.7 366.7 128 400C122.3 433.3 142.7 466.7 158.2 500C173.7 533.3 184.3 566.7 189.7 583.3L195 600L0 600L0 583.3C0 566.7 0 533.3 0 500C0 466.7 0 433.3 0 400C0 366.7 0 333.3 0 300C0 266.7 0 233.3 0 200C0 166.7 0 133.3 0 100C0 66.7 0 33.3 0 16.7L0 0Z" fill="#5900ff" stroke-linecap="round" stroke-linejoin="miter"></path></svg>