<svg id="visual" viewBox="0 0 900 600" width="900" height="600" xmlns="http://www.w3.org/2000/svg" xmlns:xlink="http://www.w3.org/1999/xlink" version="1.1"><rect x="0" y="0" width="900" height="600" fill="#111729"></rect><defs><linearGradient id="grad1_0" x1="33.3%" y1="0%" x2="100%" y2="100%"><stop offset="20%" stop-color="#111729" stop-opacity="1"></stop><stop offset="80%" stop-color="#111729" stop-opacity="1"></stop></linearGradient></defs><defs><linearGradient id="grad2_0" x1="0%" y1="0%" x2="66.7%" y2="100%"><stop offset="20%" stop-color="#111729" stop-opacity="1"></stop><stop offset="80%" stop-color="#111729" stop-opacity="1"></stop></linearGradient></defs><g transform="translate(900, 0)"><path d="M0 270.4C-34.8 263.2 -69.5 256.1 -100.3 242.1C-131 228.1 -157.7 207.2 -183.8 183.8C-210 160.5 -235.5 134.5 -249.8 103.5C-264.2 72.4 -267.3 36.2 -270.4 0L0 0Z" fill="#5900ff"></path></g><g transform="translate(0, 600)"><path d="M0 -270.4C34.8 -266.4 69.6 -262.4 103.5 -249.8C137.3 -237.3 170.2 -216.1 187.4 -187.4C204.5 -158.7 205.9 -122.4 217.1 -89.9C228.3 -57.4 249.4 -28.7 270.4 0L0 0Z" fill="#5900ff"></path></g></svg>