<svg id="visual" viewBox="0 0 900 600" width="900" height="600" xmlns="http://www.w3.org/2000/svg" xmlns:xlink="http://www.w3.org/1999/xlink" version="1.1"><rect x="0" y="0" width="900" height="600" fill="#ffffff"></rect><defs><linearGradient id="grad1_0" x1="33.3%" y1="0%" x2="100%" y2="100%"><stop offset="20%" stop-color="#ffffff" stop-opacity="1"></stop><stop offset="80%" stop-color="#ffffff" stop-opacity="1"></stop></linearGradient></defs><defs><linearGradient id="grad2_0" x1="0%" y1="0%" x2="66.7%" y2="100%"><stop offset="20%" stop-color="#ffffff" stop-opacity="1"></stop><stop offset="80%" stop-color="#ffffff" stop-opacity="1"></stop></linearGradient></defs><g transform="translate(900, 0)"><path d="M0 270.4C-29.3 251.4 -58.7 232.5 -91.8 221.7C-125 211 -162 208.5 -190.2 190.2C-218.4 171.9 -237.9 137.8 -249.8 103.5C-261.7 69.1 -266.1 34.6 -270.4 0L0 0Z" fill="#5046e3"></path></g><g transform="translate(0, 600)"><path d="M0 -270.4C35.1 -266.7 70.2 -263 103.5 -249.8C136.8 -236.7 168.4 -214.1 185.3 -185.3C202.2 -156.5 204.4 -121.5 216.2 -89.5C227.9 -57.6 249.2 -28.8 270.4 0L0 0Z" fill="#5046e3"></path></g></svg>