<svg id="visual" viewBox="0 0 900 600" width="900" height="600" xmlns="http://www.w3.org/2000/svg" xmlns:xlink="http://www.w3.org/1999/xlink" version="1.1"><rect x="0" y="0" width="900" height="600" fill="#f7f8f8"></rect><defs><linearGradient id="grad1_0" x1="33.3%" y1="0%" x2="100%" y2="100%"><stop offset="20%" stop-color="#f7f8f8" stop-opacity="1"></stop><stop offset="80%" stop-color="#f7f8f8" stop-opacity="1"></stop></linearGradient></defs><defs><linearGradient id="grad2_0" x1="0%" y1="0%" x2="66.7%" y2="100%"><stop offset="20%" stop-color="#f7f8f8" stop-opacity="1"></stop><stop offset="80%" stop-color="#f7f8f8" stop-opacity="1"></stop></linearGradient></defs><g transform="translate(900, 0)"><path d="M0 270.4C-39.8 271.1 -79.5 271.8 -103.5 249.8C-127.5 227.8 -135.7 183.1 -155.6 155.6C-175.5 128 -207.1 117.6 -228.2 94.5C-249.3 71.5 -259.9 35.7 -270.4 0L0 0Z" fill="#007bff"></path></g><g transform="translate(0, 600)"><path d="M0 -270.4C31.7 -259.3 63.4 -248.2 98.3 -237.4C133.3 -226.7 171.6 -216.3 191.2 -191.2C210.8 -166.1 211.7 -126.2 221.7 -91.8C231.8 -57.5 251.1 -28.8 270.4 0L0 0Z" fill="#007bff"></path></g></svg>